<svg width="24" height="24" viewBox="0 0 24 24" fill="none" xmlns="http://www.w3.org/2000/svg">
<g clip-path="url(#clip0_726_276)">
<path d="M23.4996 6.50701C23.3637 6.02225 23.099 5.58336 22.7336 5.23702C22.3579 4.88002 21.8974 4.62465 21.3956 4.49501C19.5176 4.00001 11.9936 4.00002 11.9936 4.00002C8.85697 3.96433 5.72107 4.12129 2.60364 4.47001C2.10183 4.60923 1.6422 4.8703 1.26564 5.23002C0.895641 5.58601 0.627641 6.02502 0.487641 6.50602C0.151334 8.31776 -0.0120674 10.1574 -0.000359379 12C-0.0123594 13.841 0.150641 15.68 0.487641 17.494C0.624641 17.973 0.891641 18.41 1.26264 18.763C1.63364 19.116 2.09564 19.371 2.60364 19.506C4.50664 20 11.9936 20 11.9936 20C15.1343 20.0358 18.2742 19.8788 21.3956 19.53C21.8974 19.4004 22.3579 19.145 22.7336 18.788C23.1036 18.435 23.3666 17.996 23.4986 17.518C23.8437 15.707 24.0115 13.8666 23.9996 12.023C24.0256 10.1716 23.858 8.32258 23.4996 6.50602V6.50701ZM9.60164 15.424V8.57701L15.8616 12.001L9.60164 15.424Z" fill="#303030"/>
</g>
<defs>
<clipPath id="clip0_726_276">
<rect width="24" height="24" fill="white"/>
</clipPath>
</defs>
</svg>
